PathFileType	4	(X/Y/Z)	path1_13_0-574.trc
DataRate	CameraRate	NumFrames	NumMarkers	Units	OrigDataRate	OrigDataStartFrame	OrigNumFrames
30	30	5	22	m	30	287	574
Frame#	Time	Hip			RHip			RKnee			RAnkle			RBigToe			RSmallToe			RHeel			LHip			LKnee			LAnkle			LBigToe			LSmallToe			LHeel			Neck			Head			Nose			RShoulder			RElbow			RWrist			LShoulder			LElbow			LWrist		
		X1	Y1	Z1	X2	Y2	Z2	X3	Y3	Z3	X4	Y4	Z4	X5	Y5	Z5	X6	Y6	Z6	X7	Y7	Z7	X8	Y8	Z8	X9	Y9	Z9	X10	Y10	Z10	X11	Y11	Z11	X12	Y12	Z12	X13	Y13	Z13	X14	Y14	Z14	X15	Y15	Z15	X16	Y16	Z16	X17	Y17	Z17	X18	Y18	Z18	X19	Y19	Z19	X20	Y20	Z20	X21	Y21	Z21	X22	Y22	Z22
288	9.6	-2.5147992363819034	0.8400207985284694	-0.581978475436533	-2.520667620037607	0.8033569022304223	-0.5034461394747946	-2.500607488946305	0.47223084196645776	-0.48572374792527884	-2.5630649488368666	0.09852936105300206	-0.5155657595708402	-2.3641302937003834	0.024146366606982064	-0.4772353131662018	-2.409795575052557	0.02325633388149318	-0.4188277213537088	-2.613111793040643	0.029096960205996253	-0.5236058786760099	-2.5120987892151754	0.7999060603295742	-0.6665775359102708	-2.5232694333240975	0.4378841175776198	-0.6541310373276199	-2.554587032278452	0.09918487161877348	-0.6519386743508107	-2.3887358590323995	0.01445939163366353	-0.6661085307220681	-2.418489214393696	0.02465865970548954	-0.7216812226027799	-2.5979991989508715	0.03340890948122381	-0.6559772863544648	-2.489147736309645	1.471705086612431	-0.6144392880817435	-2.4575981845776607	1.718639066339204	-0.5692159977113004	-2.353557583751704	1.6062531164151788	-0.5928078909875416	-2.5341918790558733	1.367014500426094	-0.4280170249946057	-2.5424191493275883	1.0826843411743585	-0.3796063764647099	-2.5253980860491247	0.8516298690171338	-0.3785310628029165	-2.4903943231746606	1.3466723865506824	-0.7767481026879147	-2.5434192022815445	1.070734582865008	-0.7926309491598957	-2.5432590853245	0.8373146428218093	-0.7875237068155934
289	9.633333333333333	-2.514581184306181	0.8403475218535971	-0.5819387302697311	-2.520636313899029	0.8035690682376845	-0.5032747259076087	-2.500581856417916	0.4725037041507528	-0.48579246569407136	-2.5640818690031693	0.09766149486846779	-0.5178514930305576	-2.365757757310569	0.023307318346158196	-0.47673724956223956	-2.4103484257317023	0.02322898005238428	-0.41835967140436525	-2.612977617328676	0.029833108594427057	-0.523722592676218	-2.511972953311687	0.8000422742324242	-0.6663453225877862	-2.5226984036852462	0.43840114324420615	-0.6522134442851526	-2.5560269114667418	0.0979404484519261	-0.651152302784342	-2.3890793038786873	0.015169589036968596	-0.666934632177342	-2.419318050335636	0.024428430988081794	-0.7220972424313792	-2.5998994265701922	0.032494044862926064	-0.6561079309508538	-2.4889258811649344	1.4718065550538182	-0.6139390781522407	-2.457423098908621	1.718582545570834	-0.5679771425721025	-2.353230633828857	1.6064428704997848	-0.5922372756856036	-2.534524837532077	1.3673738871856693	-0.429045087615223	-2.542352137333491	1.0825702485459934	-0.3795398146907799	-2.5253119734132623	0.8514618763666647	-0.37838845544335503	-2.4893275655875216	1.3462933223606814	-0.7776633085630633	-2.5434892425727242	1.0707099961413236	-0.7926958708479498	-2.543045227704205	0.837492581262417	-0.7872233617901316
290	9.666666666666666	-2.514292090266418	0.8406355794804767	-0.5819712267390765	-2.5205178325093214	0.8035972730650799	-0.5032477293963636	-2.5005689159970332	0.4727047896334835	-0.48593674244030677	-2.5643813298253133	0.09748549678562371	-0.5189077898743495	-2.366975802178825	0.022305623618819475	-0.47656475619192795	-2.4108506642531964	0.023246292935709494	-0.41813706371619475	-2.612706064479498	0.03059855567563668	-0.5238793211073048	-2.5117867312702646	0.8001129723541829	-0.6662033962070741	-2.522243080409015	0.4389055006116519	-0.6509615185036829	-2.5574722801611975	0.09663855115304869	-0.6503200225205416	-2.389448784932373	0.016052307739781828	-0.6677960158377968	-2.4206532327804724	0.023914128162572688	-0.7225615713008985	-2.601335630509823	0.031643321207726595	-0.6556339783407814	-2.4887215722118383	1.4719400119069013	-0.613610010133904	-2.457452252507709	1.7184930981246713	-0.5674019450873682	-2.353084169171875	1.6067317132703345	-0.5921484514402595	-2.5352875171733658	1.3685794205343906	-0.4312160963797115	-2.5423951536290503	1.082370877738107	-0.37949608885442965	-2.5251840088642648	0.8512686627149125	-0.3783280447532346	-2.489183091422473	1.3460440934792346	-0.7776041366766117	-2.543492555592714	1.0706620952645096	-0.7928542199670219	-2.542812735110149	0.8375145666986527	-0.7868688230244307
291	9.7	-2.514070596191972	0.8408050955675074	-0.5820868107330675	-2.52039969739134	0.8035307300313868	-0.5033376706502093	-2.5005909663390815	0.47276522764931955	-0.48606755028768533	-2.564505512530265	0.09762169281178008	-0.5193212457003633	-2.3674881995152113	0.021278813904949907	-0.47681211587011535	-2.411223742535608	0.023290166894098532	-0.4182044832494487	-2.6125562207433126	0.0311417420351003	-0.5241190320683693	-2.511606700646479	0.80019934631416	-0.6662190661555261	-2.522022051200195	0.4392912435366967	-0.650317366728203	-2.5583137118570325	0.09587483879566659	-0.6498032541607772	-2.389747253996874	0.016742069701361578	-0.6684124835256997	-2.421779657780774	0.023302263479402834	-0.7227080749013677	-2.602195490269394	0.03101735761314523	-0.6548862421383046	-2.488572058566695	1.4720382975556776	-0.6134435123726073	-2.457522837376155	1.7184657040122768	-0.5675806388689594	-2.353099739688285	1.6069991815034856	-0.592526022632973	-2.536101519544916	1.3698384935072387	-0.4333753741380402	-2.5425334072870243	1.0820919617744877	-0.3794373896443527	-2.525072943889064	0.8509902429798354	-0.3783391319659072	-2.490027729871653	1.3460375637386306	-0.7764801109914572	-2.543437721337109	1.0706245683622706	-0.7930361635905243	-2.542647908590842	0.8373931839938554	-0.7865850717632926
292	9.733333333333333	-2.51403035547695	0.8408527911302224	-0.5822928247139261	-2.520360460406074	0.8034816544458022	-0.5035580303500746	-2.5006491002168856	0.47271641996858516	-0.4861437892569783	-2.564771529301757	0.09778310970202164	-0.5195065852493574	-2.3673623730277216	0.020395261447738885	-0.47737244640087567	-2.4114482874607	0.02333672492579572	-0.41849577488670675	-2.6124875635396365	0.03143076860384403	-0.5242111317217482	-2.511519127655001	0.8003972186561751	-0.6664375546388303	-2.5221076573630774	0.4395030242849253	-0.6501718887003812	-2.5586243564249256	0.09553616826280688	-0.6496654773336723	-2.3899125397848224	0.01707047463195393	-0.6686518254807664	-2.422364923181131	0.022694910415234693	-0.7224174386287143	-2.6025570101792947	0.030808832136209382	-0.6544262919580324	-2.4884745791187433	1.472090877466713	-0.6133579242737449	-2.457452225990422	1.7185894658487402	-0.5682070822765606	-2.353195738893855	1.6071429730863929	-0.5931933476377272	-2.5367322866975774	1.3707105020271741	-0.43493871561875336	-2.5426790632149823	1.0817352103880382	-0.3793673860596481	-2.5250101287733493	0.8505676113231168	-0.37841905331887077	-2.4916079488280967	1.3463030144895447	-0.7745224666411681	-2.543386371211503	1.0706376286368875	-0.7931716973745139	-2.542607012100699	0.8372390843360178	-0.7864408162237054
